<svg width="20" height="20" viewBox="0 0 35 32" fill="none" xmlns="http://www.w3.org/2000/svg">
<g clip-path="url(#clip0_17_86)">
<path d="M19.4184 0C19.9762 0 20.4855 0.324975 20.728 0.843686L24.8875 9.67427L34.1764 11.0867C34.7221 11.1679 35.1769 11.5616 35.3466 12.1053C35.5164 12.649 35.3769 13.2365 34.9889 13.6365L28.2526 20.5235L29.8412 30.2477C29.9321 30.8102 29.7078 31.3789 29.253 31.7164C28.7983 32.0538 28.2041 32.0913 27.719 31.8226L19.4123 27.2479L11.1177 31.8163C10.6266 32.0851 10.0324 32.0476 9.58372 31.7101C9.13503 31.3726 8.90463 30.8039 8.99558 30.2415L10.5842 20.5172L3.84785 13.6365C3.45373 13.2365 3.32034 12.6428 3.49011 12.1053C3.65988 11.5679 4.11463 11.1742 4.66033 11.0867L13.9493 9.67427L18.1087 0.843686C18.3573 0.324975 18.8605 0 19.4184 0ZM19.4184 4.93713L16.2351 11.6991C16.0229 12.1428 15.6167 12.4553 15.1377 12.5303L7.96482 13.6177L13.1732 18.9361C13.5067 19.2798 13.6643 19.7673 13.5855 20.2485L12.3546 27.7292L18.7332 24.2169C19.1637 23.9794 19.6791 23.9794 20.1035 24.2169L26.4821 27.7292L25.2573 20.2547C25.1785 19.7735 25.3301 19.286 25.6696 18.9423L30.878 13.624L23.7051 12.5303C23.2322 12.4553 22.8199 12.1491 22.6077 11.6991L19.4184 4.93713Z" fill="#C4D4E3"/>
</g>
<defs>
<clipPath id="clip0_17_86">
<rect width="35" height="32" fill="white"/>
</clipPath>
</defs>
</svg>
